<svg xmlns="http://www.w3.org/2000/svg" viewBox="0 0 348 348" fill="none">
  <path d="M5.08 5.776h336.91v337.67H5.08z" stroke-width="2" stroke="#000"/>
  <path d="M282.734 40.554c0-8.376 6.966-15.165 15.56-15.165 4.126 0 8.083 1.59 11 4.44 2.92 2.84 4.56 6.7 4.56 10.72 0 8.37-6.967 15.16-15.56 15.16-8.594 0-15.56-6.79-15.56-15.17z" stroke-width="2" stroke="#000"/>
  <path d="M200 63l-.418-1.403-1.142-1.85-1.695-2.136-2.08-2.25-2.293-2.21-2.34-2-2.213-1.63-1.92-1.1-1.46-.4H75.55l-1.456.41-1.92 1.1-2.214 1.638-2.34 2.005-2.292 2.214-2.08 2.253-1.694 2.136-1.143 1.85L60 63v30l.418 1.403 1.142 1.85 1.695 2.136 2.08 2.25 2.293 2.21 2.34 2 2.213 1.63 1.92 1.1 1.46.4h108.89l1.46-.41 1.92-1.1 2.22-1.637 2.34-2.004 2.3-2.21 2.08-2.255 1.7-2.138 1.144-1.85.41-1.4z" color="#000" stroke="#000" stroke-width="5" overflow="visible"/>
  <path d="M80 160l-.293-1.36-.807-1.606-1.21-1.745-1.51-1.78-1.694-1.7-1.775-1.51-1.74-1.21-1.6-.81L68 148H32l-1.36.293-1.606.807-1.745 1.21-1.78 1.51-1.7 1.694-1.51 1.775-1.21 1.74-.81 1.6L20 160v36l.293 1.36.807 1.606 1.21 1.745 1.51 1.78 1.694 1.7 1.775 1.51 1.74 1.21 1.6.81L32 208h36l1.36-.293 1.606-.807 1.745-1.21 1.78-1.51 1.7-1.694 1.51-1.775 1.21-1.74.81-1.6L80 196zm60 0l-.293-1.36-.807-1.606-1.21-1.745-1.51-1.78-1.694-1.7-1.775-1.51-1.74-1.21-1.6-.81L128 148H92l-1.36.293-1.606.807-1.745 1.21-1.78 1.51-1.7 1.694-1.51 1.775-1.21 1.74-.81 1.6L80 160v36l.293 1.36.807 1.606 1.21 1.745 1.51 1.78 1.694 1.7 1.775 1.51 1.74 1.21 1.6.81L92 208h36l1.36-.293 1.606-.807 1.745-1.21 1.78-1.51 1.7-1.694 1.51-1.775 1.21-1.74.81-1.6.29-1.36zm60 0l-.293-1.36-.807-1.606-1.21-1.745-1.51-1.78-1.694-1.7-1.775-1.51-1.74-1.21-1.6-.81L188 148h-36l-1.36.293-1.606.807-1.745 1.21-1.78 1.51-1.7 1.694-1.51 1.775-1.21 1.74-.81 1.6L140 160v36l.293 1.36.807 1.606 1.21 1.745 1.51 1.78 1.694 1.7 1.775 1.51 1.74 1.21 1.6.81 1.36.29h36l1.36-.29 1.6-.8 1.74-1.21 1.77-1.51 1.693-1.69 1.51-1.77 1.21-1.74.807-1.604.29-1.36zm60 0l-.293-1.36-.807-1.606-1.21-1.745-1.51-1.78-1.694-1.7-1.775-1.51-1.74-1.21-1.6-.81L248 148h-36l-1.36.293-1.606.807-1.745 1.21-1.78 1.51-1.7 1.694-1.51 1.775-1.21 1.74-.81 1.6L200 160v36l.293 1.36.807 1.606 1.21 1.745 1.51 1.78 1.694 1.7 1.775 1.51 1.74 1.21 1.6.81 1.36.29h36l1.36-.29 1.6-.8 1.74-1.21 1.77-1.51 1.693-1.69 1.51-1.77 1.21-1.74.807-1.604.29-1.36zm60 0l-.293-1.36-.807-1.606-1.21-1.745-1.51-1.78-1.694-1.7-1.775-1.51-1.74-1.21-1.6-.81L308 148h-36l-1.36.293-1.606.807-1.745 1.21-1.78 1.51-1.7 1.694-1.51 1.775-1.21 1.74-.81 1.6L260 160v36l.293 1.36.807 1.606 1.21 1.745 1.51 1.78 1.694 1.7 1.775 1.51 1.74 1.21 1.6.81 1.36.29h36l1.36-.29 1.6-.8 1.74-1.21 1.77-1.51 1.693-1.69 1.51-1.77 1.21-1.74.807-1.604.29-1.36zM80 220l-.293-1.36-.807-1.606-1.21-1.745-1.51-1.78-1.694-1.7-1.775-1.51-1.74-1.21-1.6-.81L68 208H32l-1.36.293-1.606.807-1.745 1.21-1.78 1.51-1.7 1.694-1.51 1.775-1.21 1.74-.81 1.6L20 220v36l.293 1.36.807 1.606 1.21 1.745 1.51 1.78 1.694 1.7 1.775 1.51 1.74 1.21 1.6.81L32 268h36l1.36-.293 1.606-.807 1.745-1.21 1.78-1.51 1.7-1.694 1.51-1.775 1.21-1.74.81-1.6L80 256zm60 0l-.293-1.36-.807-1.606-1.21-1.745-1.51-1.78-1.694-1.7-1.775-1.51-1.74-1.21-1.6-.81L128 208H92l-1.36.293-1.606.807-1.745 1.21-1.78 1.51-1.7 1.694-1.51 1.775-1.21 1.74-.81 1.6L80 220v36l.293 1.36.807 1.606 1.21 1.745 1.51 1.78 1.694 1.7 1.775 1.51 1.74 1.21 1.6.81L92 268h36l1.36-.293 1.606-.807 1.745-1.21 1.78-1.51 1.7-1.694 1.51-1.775 1.21-1.74.81-1.6.29-1.36zm60 0l-.293-1.36-.807-1.606-1.21-1.745-1.51-1.78-1.694-1.7-1.775-1.51-1.74-1.21-1.6-.81L188 208h-36l-1.36.293-1.606.807-1.745 1.21-1.78 1.51-1.7 1.694-1.51 1.775-1.21 1.74-.81 1.6L140 220v36l.293 1.36.807 1.606 1.21 1.745 1.51 1.78 1.694 1.7 1.775 1.51 1.74 1.21 1.6.81 1.36.29h36l1.36-.29 1.6-.8 1.74-1.21 1.77-1.51 1.693-1.69 1.51-1.77 1.21-1.74.807-1.604.29-1.36zm60 0l-.293-1.36-.807-1.606-1.21-1.745-1.51-1.78-1.694-1.7-1.775-1.51-1.74-1.21-1.6-.81L248 208h-36l-1.36.293-1.606.807-1.745 1.21-1.78 1.51-1.7 1.694-1.51 1.775-1.21 1.74-.81 1.6L200 220v36l.293 1.36.807 1.606 1.21 1.745 1.51 1.78 1.694 1.7 1.775 1.51 1.74 1.21 1.6.81 1.36.29h36l1.36-.29 1.6-.8 1.74-1.21 1.77-1.51 1.693-1.69 1.51-1.77 1.21-1.74.807-1.604.29-1.36zm60 0l-.293-1.36-.807-1.606-1.21-1.745-1.51-1.78-1.694-1.7-1.775-1.51-1.74-1.21-1.6-.81L308 208h-36l-1.36.293-1.606.807-1.745 1.21-1.78 1.51-1.7 1.694-1.51 1.775-1.21 1.74-.81 1.6L260 220v36l.293 1.36.807 1.606 1.21 1.745 1.51 1.78 1.694 1.7 1.775 1.51 1.74 1.21 1.6.81 1.36.29h36l1.36-.29 1.6-.8 1.74-1.21 1.77-1.51 1.693-1.69 1.51-1.77 1.21-1.74.807-1.604.29-1.36zM80 280l-.293-1.36-.807-1.606-1.21-1.745-1.51-1.78-1.694-1.7-1.775-1.51-1.74-1.21-1.6-.81L68 268H32l-1.36.293-1.606.807-1.745 1.21-1.78 1.51-1.7 1.694-1.51 1.775-1.21 1.74-.81 1.6L20 280v36l.293 1.36.807 1.606 1.21 1.745 1.51 1.78 1.694 1.7 1.775 1.51 1.74 1.21 1.6.81L32 328h36l1.36-.293 1.606-.807 1.745-1.21 1.78-1.51 1.7-1.694 1.51-1.775 1.21-1.74.81-1.6L80 316zm60 0l-.293-1.36-.807-1.606-1.21-1.745-1.51-1.78-1.694-1.7-1.775-1.51-1.74-1.21-1.6-.81L128 268H92l-1.36.293-1.606.807-1.745 1.21-1.78 1.51-1.7 1.694-1.51 1.775-1.21 1.74-.81 1.6L80 280v36l.293 1.36.807 1.606 1.21 1.745 1.51 1.78 1.694 1.7 1.775 1.51 1.74 1.21 1.6.81L92 328h36l1.36-.293 1.606-.807 1.745-1.21 1.78-1.51 1.7-1.694 1.51-1.775 1.21-1.74.81-1.6.29-1.36zm60 0l-.293-1.36-.807-1.606-1.21-1.745-1.51-1.78-1.694-1.7-1.775-1.51-1.74-1.21-1.6-.81L188 268h-36l-1.36.293-1.606.807-1.745 1.21-1.78 1.51-1.7 1.694-1.51 1.775-1.21 1.74-.81 1.6L140 280v36l.293 1.36.807 1.606 1.21 1.745 1.51 1.78 1.694 1.7 1.775 1.51 1.74 1.21 1.6.81 1.36.29h36l1.36-.29 1.6-.8 1.74-1.21 1.77-1.51 1.693-1.69 1.51-1.77 1.21-1.74.807-1.604.29-1.36zm60 0l-.293-1.36-.807-1.606-1.21-1.745-1.51-1.78-1.694-1.7-1.775-1.51-1.74-1.21-1.6-.81L248 268h-36l-1.36.293-1.606.807-1.745 1.21-1.78 1.51-1.7 1.694-1.51 1.775-1.21 1.74-.81 1.6L200 280v36l.293 1.36.807 1.606 1.21 1.745 1.51 1.78 1.694 1.7 1.775 1.51 1.74 1.21 1.6.81 1.36.29h36l1.36-.29 1.6-.8 1.74-1.21 1.77-1.51 1.693-1.69 1.51-1.77 1.21-1.74.807-1.604.29-1.36zm60 0l-.293-1.36-.807-1.606-1.21-1.745-1.51-1.78-1.694-1.7-1.775-1.51-1.74-1.21-1.6-.81L308 268h-36l-1.36.293-1.606.807-1.745 1.21-1.78 1.51-1.7 1.694-1.51 1.775-1.21 1.74-.81 1.6L260 280v36l.293 1.36.807 1.606 1.21 1.745 1.51 1.78 1.694 1.7 1.775 1.51 1.74 1.21 1.6.81 1.36.29h36l1.36-.29 1.6-.8 1.74-1.21 1.77-1.51 1.693-1.69 1.51-1.77 1.21-1.74.807-1.604.29-1.36z" stroke="#000" stroke-width="3"/>
  <path d="M91.54 88.336c2.53-.013 4.5-.582 5.913-1.704 1.412-1.123 2.13-2.72 2.152-4.792-.054-1.705-.595-2.974-1.623-3.806-1.028-.83-2.218-1.41-3.57-1.734-1.353-.325-2.544-.58-3.572-.764-1.028-.184-1.57-.48-1.623-.892-.01-.243.088-.443.294-.598.21-.156.59-.237 1.14-.242.9 0 1.83.154 2.8.462.97.308 1.86.77 2.69 1.386l3.03-4.004c-1.07-.868-2.27-1.52-3.61-1.953-1.34-.434-2.77-.65-4.31-.65-2.56.06-4.49.695-5.8 1.907-1.3 1.21-1.95 2.638-1.95 4.28.058 1.808.6 3.14 1.63 4 1.03.86 2.22 1.446 3.58 1.758 1.355.31 2.55.548 3.58.71 1.03.165 1.57.453 1.627.868-.02.36-.23.62-.636.777-.41.158-.89.235-1.44.23-1.265-.015-2.41-.25-3.43-.7-1.02-.45-1.88-1.02-2.59-1.707l-2.94 4.2c.984.908 2.18 1.626 3.596 2.156 1.41.53 3.104.8 5.08.812zM115.517 88V74.476h-5.04v8.344c-.202.253-.47.49-.8.71-.333.222-.775.34-1.328.354-.63.006-1.11-.14-1.45-.437-.34-.3-.52-.787-.52-1.467v-7.504h-5.04v9.66c-.01 1.192.34 2.182 1.06 2.972s1.85 1.198 3.41 1.228c1.18-.023 2.16-.222 2.92-.598.76-.377 1.33-.793 1.72-1.25V88zm7.825-5.012v-3.472c.254-.296.58-.523.977-.682.39-.16.77-.24 1.12-.242.7.005 1.29.233 1.77.686.47.453.72 1.1.74 1.946-.02.858-.27 1.515-.75 1.97-.48.456-1.07.686-1.78.69-.35 0-.73-.076-1.12-.227-.4-.152-.73-.374-.98-.67zm0 5.012v-1.428c.575.637 1.182 1.092 1.82 1.365.638.273 1.3.406 1.988.4 1.682-.007 3.085-.61 4.21-1.814 1.126-1.203 1.71-2.97 1.754-5.3-.04-2.254-.618-3.995-1.732-5.22-1.115-1.227-2.526-1.848-4.232-1.863-.692-.007-1.365.126-2.02.4-.653.272-1.25.727-1.788 1.364v-6.58h-5.04V88zm33.956 0v-9.8c-.018-1.394-.402-2.42-1.152-3.08-.75-.66-1.756-.986-3.02-.98-1.104.026-2.068.276-2.89.75-.825.473-1.44 1.017-1.842 1.63-.313-.834-.8-1.44-1.463-1.82-.66-.38-1.47-.566-2.42-.56-1.1.03-2.05.25-2.84.655-.78.405-1.33.812-1.64 1.22v-1.54h-5.04V88h5.04v-8.344c.17-.216.41-.442.74-.68.33-.236.77-.364 1.31-.384.57.012.97.163 1.2.452.24.288.35.642.34 1.06V88h5.04v-8.344c.17-.216.41-.442.74-.68.33-.236.78-.364 1.33-.384.56.012.95.163 1.19.452.24.288.36.642.35 1.06V88zm5.306-14.504c.803-.02 1.47-.295 2.002-.826.53-.53.806-1.198.826-2.002-.02-.804-.296-1.47-.826-2.002-.53-.53-1.2-.806-2.002-.826-.804.02-1.472.295-2.002.826-.53.53-.807 1.198-.826 2.002.02.804.295 1.47.826 2.002.53.53 1.198.806 2.002.826zM165.124 88V74.476h-5.04V88zm8.464.336c.856-.008 1.572-.097 2.15-.27.575-.172.997-.38 1.266-.626l-.896-3.808c-.063.06-.19.116-.378.168-.19.053-.4.08-.63.084-.34-.01-.612-.13-.812-.367-.2-.237-.304-.534-.308-.893v-3.78h2.744v-4.368h-2.744V70.78h-5.04v3.696h-2.24v4.368h2.24v5.236c.006 1.415.406 2.477 1.2 3.19.794.71 1.943 1.065 3.448 1.066z" style="text-align:center;line-height:125%;-inkscape-font-specification:Proxima Nova Alt Bl Heavy" font-size="28" font-weight="900" letter-spacing="0" word-spacing="0" text-anchor="middle" fill="#000" font-family="Proxima Nova Alt Bl"/>
</svg>
